<svg focusable="false" aria-hidden="true" xmlns="http://www.w3.org/2000/svg" xmlns:xlink="http://www.w3.org/1999/xlink" viewBox="0 0 190 48" height="1.4em" style="margin-top: -.2em">
  <defs>
    <path id="a" fill="#fff" d="M0 .09v47.742h63.327V.09z"/>
  </defs>
  <g fill="none" fill-rule="evenodd">
    <path fill="currentColor" d="M74.576 25.006v-4.023l-.014-.005c-.403-.145-1.171-.21-1.715-.21-1.019 0-1.972.29-2.756.84-.75.526-1.283 1.261-1.5 2.07h-.232v-2.641h-4.267v16.596h4.401v-9.191c0-2.257 1.568-3.716 3.994-3.716.694 0 1.715.133 2.06.27l.029.01Zm4.283 2.574c.077-1.038.452-1.918 1.087-2.547.64-.633 1.5-.967 2.486-.967 2.016 0 3.326 1.346 3.423 3.515H78.86Zm3.558-6.903c-2.416 0-4.432.811-5.828 2.346-1.396 1.534-2.133 3.745-2.133 6.395 0 2.642.732 4.823 2.118 6.306 1.387 1.485 3.428 2.27 5.903 2.27 1.982 0 3.73-.474 5.056-1.37 1.32-.891 2.189-2.177 2.515-3.72l.005-.025h-4.1l-.005.012c-.464 1.096-1.654 1.699-3.352 1.699-2.256 0-3.694-1.522-3.754-3.972v-.204h11.34v-1.356c0-2.583-.709-4.715-2.052-6.165-1.343-1.45-3.319-2.216-5.713-2.216Zm12.837 6.903c.077-1.038.453-1.918 1.088-2.547.639-.633 1.499-.967 2.485-.967 2.016 0 3.326 1.346 3.423 3.515h-6.996Zm3.558-6.903c-2.416 0-4.432.811-5.828 2.346-1.396 1.534-2.133 3.745-2.133 6.395 0 2.642.732 4.823 2.118 6.306 1.387 1.485 3.428 2.27 5.903 2.27 1.982 0 3.73-.474 5.056-1.37 1.32-.891 2.189-2.177 2.515-3.72l.005-.025h-4.1l-.005.012c-.464 1.096-1.654 1.699-3.351 1.699-2.256 0-3.695-1.522-3.755-3.972v-.204h11.34v-1.356c0-2.583-.709-4.715-2.051-6.165-1.344-1.45-3.32-2.216-5.714-2.216Z"/>
    <path fill="currentColor" d="m117.06 27.956-3.102-.675c-1.532-.346-2.216-.849-2.216-1.63 0-1.022 1.107-1.735 2.691-1.735 1.567 0 2.597.623 2.826 1.709l.003.016h4.07l-.002-.022c-.12-1.582-.785-2.815-1.978-3.665-1.191-.847-2.856-1.277-4.95-1.277-4.124 0-6.896 2.107-6.896 5.244 0 1.289.388 2.303 1.186 3.1.79.792 1.966 1.35 3.594 1.708l2.997.675c1.428.31 2.065.804 2.065 1.6 0 1.047-1.141 1.75-2.84 1.75-1.699 0-2.775-.606-3.111-1.755l-.004-.015h-4.294l.002.023c.15 1.588.868 2.83 2.135 3.692 1.263.859 3.006 1.294 5.182 1.294 4.368 0 7.302-2.203 7.302-5.483 0-1.25-.369-2.213-1.127-2.946-.747-.723-1.903-1.249-3.534-1.608m10.616-2.338c.624-.868 1.551-1.327 2.68-1.327 1.125 0 2.05.459 2.677 1.327.627.869.958 2.152.958 3.71 0 3.21-1.325 5.051-3.634 5.051-1.155 0-2.059-.443-2.687-1.317-.629-.875-.947-2.13-.947-3.734 0-1.56.33-2.844.953-3.71m2.68-4.941c-2.477 0-4.541.8-5.97 2.312-1.429 1.515-2.185 3.707-2.185 6.339 0 5.426 3.049 8.665 8.156 8.665 5.107 0 8.156-3.239 8.156-8.665 0-2.638-.756-4.832-2.186-6.344-1.426-1.51-3.49-2.307-5.97-2.307m20.114 9.926c0 2.257-1.21 3.552-3.32 3.552-2.004 0-3.02-1.155-3.02-3.432v-9.686h-4.4V31.85c0 1.883.538 3.445 1.56 4.517 1.013 1.065 2.48 1.627 4.242 1.627 2.394 0 4.022-1.014 4.839-3.016h.234v2.656h4.267V21.037h-4.402v9.566Zm15.995-9.926c-2.355 0-4.094 1.071-4.898 3.017h-.235v-2.657h-4.266v16.596h4.401v-9.566c0-1.069.3-1.969.87-2.603.573-.64 1.395-.978 2.375-.978 1.014 0 1.78.296 2.28.878.492.573.74 1.442.74 2.583v9.686h4.402V26.912c0-4.02-2.013-6.235-5.67-6.235M181.658 34.2c-2.323 0-3.71-1.822-3.71-4.872 0-1.484.343-2.716.99-3.563.647-.846 1.588-1.294 2.72-1.294 2.297 0 3.724 1.867 3.724 4.872 0 1.484-.343 2.716-.992 3.563-.648.846-1.593 1.293-2.732 1.293Zm3.68-19.481v8.96h-.22c-.858-1.824-2.704-2.912-4.943-2.912-4.163 0-6.748 3.275-6.748 8.546 0 2.598.624 4.767 1.806 6.271 1.184 1.508 2.893 2.304 4.942 2.304 2.28 0 4.171-1.065 5.062-2.851h.235v2.596h4.267V14.72h-4.402Z"/>
    <g fill="currentColor" transform="translate(0 .078)">
      <mask id="b">
        <use xlink:href="#a"/>
      </mask>
      <path d="M63.31 14.655a13.68 13.68 0 0 0-2.25-.165c-3.879 0-5.684 1.58-5.684 4.974v1.66h-3.124a4.601 4.601 0 0 0-.723.063c-.007 0-.013.002-.019.003-.75.127-1.44.432-2.054.837-.806.545-1.501 1.28-1.907 2.238l-.323.775-1.135 2.728-.05.119-.804-5.907-1.55-11.361a6.673 6.673 0 0 0-.13-.705 2.109 2.109 0 0 0-.298-.568 1.707 1.707 0 0 0-.429-.408 1.61 1.61 0 0 0-.99-.263 1.633 1.633 0 0 0-.768.257c-.364.248-.485.473-.586.642-.256.499-.304.846-.396 1.363l-3.585 23.229-1.38-19.105a6.219 6.219 0 0 0-.137-.99c-.041-.16-.08-.319-.211-.567a1.667 1.667 0 0 0-.376-.463 1.583 1.583 0 0 0-1.029-.384 1.582 1.582 0 0 0-.981.343c-.34.287-.414.485-.5.641-.198.448-.248.77-.334 1.268l-1.478 9.335-2.29-21.808a6.312 6.312 0 0 0-.164-.974c-.045-.156-.086-.309-.219-.546A1.67 1.67 0 0 0 27.04.47a1.584 1.584 0 0 0-1.024-.38 1.592 1.592 0 0 0-1.015.371c-.343.31-.406.512-.486.671-.18.455-.216.778-.284 1.28l-3.928 32.88-2.164-16.913c-.053-.398-.112-.723-.24-1.076a2.121 2.121 0 0 0-.343-.618 1.659 1.659 0 0 0-1.284-.622 1.662 1.662 0 0 0-1.236.563c-.291.339-.37.577-.466.827a5.952 5.952 0 0 0-.21.79l-1.871 9.245-1.341-3.224c-.406-.958-1.101-1.693-1.907-2.237-.812-.536-1.756-.896-2.796-.903H1.523C.682 21.124 0 21.807 0 22.65c0 .842.682 1.525 1.523 1.525h4.922c.27-.007.723.129 1.106.39.389.255.688.62.786.873l3.252 7.816c.256.617.89.996 1.554.931a1.527 1.527 0 0 0 1.343-1.214l1.501-7.417 2.555 19.971c.05.378.101.68.196.99.053.16.104.321.253.56.08.118.185.265.393.428.2.157.553.331.965.329.411.002.768-.172.969-.332.356-.293.438-.51.523-.674.203-.477.238-.808.309-1.315l3.779-31.634 2.08 19.823c.043.383.089.692.183 1.015.052.165.105.335.262.583.083.124.196.277.41.438.205.157.557.317.947.313a1.6 1.6 0 0 0 .919-.293c.355-.265.456-.48.55-.642.23-.476.279-.811.37-1.317l1.219-7.698 1.397 19.33c.029.378.062.677.134.986.04.157.078.314.207.56.07.124.163.28.37.465.195.179.576.392 1.024.392h.014c.447 0 .802-.194.992-.353.24-.206.344-.364.414-.494.03-.054.053-.103.077-.149.194-.444.242-.765.327-1.262l1.683-10.902 2.329-15.087.697 5.106 1.008 7.382c.058.41.126.753.28 1.13.084.189.184.397.41.642a1.7 1.7 0 0 0 1.227.536 1.71 1.71 0 0 0 1.153-.458 2.49 2.49 0 0 0 .188-.2 1.517 1.517 0 0 0 .308-.469l.054-.131.01-.021c.023-.052.044-.105.065-.158l.598-1.437 1.928-4.636.013-.03.584-1.403c.097-.252.397-.618.786-.872.377-.258.823-.393 1.094-.39h3.136v13.379h4.4v-13.38h3.417v-3.051h-3.506v-1.345c0-1.447.693-2.065 2.316-2.065.598 0 1.073.051 1.301.075l.023.003v-3.133l-.017-.004Z" mask="url(#b)"/>
    </g>
  </g>
</svg>
