<svg focsuable="false" aria-hidden="true" xmlns="http://www.w3.org/2000/svg" viewBox="-0.03 -0.03 124.13 26.82" height="1.1em" style="margin-top: -.1em">
	<g fill="currentColor">
		<g data-name="<Group>">
			<g data-name="<Group>">
				<path d="M38.166 20.42h-4.737l-1.137 3.359h-2.007l4.488-12.427h2.084l4.487 12.427h-2.041Zm-4.246-1.55h3.755l-1.852-5.451h-.051ZM51.024 19.249c0 2.817-1.507 4.625-3.78 4.625a3.07 3.07 0 0 1-2.851-1.584h-.043v4.486h-1.86V14.72h1.8v1.507h.034a3.211 3.211 0 0 1 2.885-1.602c2.3 0 3.815 1.817 3.815 4.625Zm-1.912 0c0-1.834-.947-3.04-2.394-3.04-1.421 0-2.377 1.231-2.377 3.04 0 1.826.956 3.049 2.377 3.049 1.447 0 2.394-1.197 2.394-3.05ZM60.989 19.249c0 2.817-1.507 4.625-3.78 4.625a3.07 3.07 0 0 1-2.852-1.584h-.043v4.486h-1.86V14.72h1.8v1.507h.035a3.211 3.211 0 0 1 2.885-1.602c2.3 0 3.815 1.817 3.815 4.625Zm-1.912 0c0-1.834-.947-3.04-2.394-3.04-1.421 0-2.377 1.231-2.377 3.04 0 1.826.956 3.049 2.377 3.049 1.447 0 2.394-1.197 2.394-3.05ZM62.488 11.352h1.86v12.427h-1.86V11.352ZM74.028 21.118c-.25 1.645-1.851 2.773-3.901 2.773-2.636 0-4.272-1.766-4.272-4.599 0-2.842 1.645-4.685 4.194-4.685 2.507 0 4.083 1.723 4.083 4.47v.637h-6.4v.112a2.36 2.36 0 0 0 2.438 2.567 2.051 2.051 0 0 0 2.093-1.275h1.765Zm-6.287-2.704h4.53a2.179 2.179 0 0 0-2.222-2.3 2.294 2.294 0 0 0-2.308 2.3ZM90.176 23.779v-9.147h-.06l-3.746 9.053h-1.43l-3.755-9.053h-.06v9.147h-1.757V11.352h2.23l4.023 9.809h.069l4.013-9.81h2.24V23.78h-1.767ZM101.848 23.779h-1.782V22.22h-.044a2.83 2.83 0 0 1-2.808 1.661 3.02 3.02 0 0 1-3.177-3.35V14.72h1.86v5.452a1.807 1.807 0 0 0 1.937 2.11 2.099 2.099 0 0 0 2.154-2.343v-5.22h1.86v9.06ZM107.138 14.615c2.006 0 3.445 1.112 3.488 2.714h-1.748a1.561 1.561 0 0 0-1.791-1.292c-1.009 0-1.68.465-1.68 1.171 0 .542.447.904 1.387 1.137l1.524.353c1.825.44 2.514 1.111 2.514 2.437 0 1.637-1.55 2.756-3.763 2.756-2.136 0-3.574-1.094-3.712-2.748h1.843a1.687 1.687 0 0 0 1.956 1.336c1.11 0 1.808-.457 1.808-1.18 0-.56-.344-.862-1.292-1.103l-1.619-.396c-1.636-.396-2.463-1.231-2.463-2.489 0-1.601 1.438-2.696 3.548-2.696ZM112.282 12.333a1.08 1.08 0 1 1 1.076 1.06 1.064 1.064 0 0 1-1.076-1.06Zm.146 2.386h1.86v9.06h-1.86v-9.06ZM122.3 17.836a2.002 2.002 0 0 0-2.135-1.67c-1.43 0-2.377 1.197-2.377 3.083 0 1.929.955 3.092 2.394 3.092a1.95 1.95 0 0 0 2.119-1.628h1.791a3.622 3.622 0 0 1-3.927 3.178c-2.584 0-4.272-1.766-4.272-4.642 0-2.816 1.688-4.642 4.255-4.642a3.642 3.642 0 0 1 3.927 3.23h-1.774Z" data-name="<Compound Path>"></path>
			</g>
			<path d="M24.665 3.353A5.326 5.326 0 0 0 21.285.32 10.956 10.956 0 0 0 18.242 0H6.92a10.956 10.956 0 0 0-3.041.32A5.326 5.326 0 0 0 .498 3.353 9.863 9.863 0 0 0 0 6.92v11.323a9.863 9.863 0 0 0 .498 3.566 5.326 5.326 0 0 0 3.38 3.033 10.956 10.956 0 0 0 3.042.32h11.323a10.956 10.956 0 0 0 3.041-.32 5.326 5.326 0 0 0 3.381-3.033 9.863 9.863 0 0 0 .498-3.566V6.92a9.863 9.863 0 0 0-.498-3.567Zm-6.309 13.954a2.333 2.333 0 0 1-.366.863 2.195 2.195 0 0 1-.689.637 2.744 2.744 0 0 1-.874.317 3.345 3.345 0 0 1-1.35.069 1.88 1.88 0 0 1-.907-.461 1.956 1.956 0 0 1-.1-2.81 2.181 2.181 0 0 1 .817-.525 8.537 8.537 0 0 1 1.384-.35l.488-.099a.848.848 0 0 0 .546-.279.913.913 0 0 0 .152-.62V8.504c0-.424-.19-.54-.595-.462-.29.057-6.507 1.31-6.507 1.31a.517.517 0 0 0-.474.635v8.125a4.28 4.28 0 0 1-.083.92 2.334 2.334 0 0 1-.367.863 2.194 2.194 0 0 1-.688.637 2.754 2.754 0 0 1-.874.323 3.345 3.345 0 0 1-1.35.068 1.886 1.886 0 0 1-.907-.466 1.991 1.991 0 0 1-.1-2.81 2.18 2.18 0 0 1 .817-.524 8.54 8.54 0 0 1 1.384-.35l.488-.1a.848.848 0 0 0 .546-.278.916.916 0 0 0 .165-.616V6.422a1.65 1.65 0 0 1 .017-.252.76.76 0 0 1 .252-.486 1.044 1.044 0 0 1 .466-.21h.003l7.479-1.51c.065-.012.605-.108.666-.114a.568.568 0 0 1 .631.662v11.87a4.304 4.304 0 0 1-.07.925Z" data-name="<Compound Path>"></path>
		</g>
		<path d="M34.652 7.535h-3.777V1.48h.94V6.67h2.837v.864ZM35.74 1.615a.585.585 0 1 1 .584.55.556.556 0 0 1-.583-.55Zm.135 1.35h.898v4.57h-.898v-4.57ZM39.895 2.877a1.559 1.559 0 0 1 1.788 1.284h-.864a.843.843 0 0 0-.924-.55.755.755 0 0 0-.885.596c0 .274.23.446.726.559l.76.176a1.29 1.29 0 0 1 1.275 1.246 1.64 1.64 0 0 1-1.893 1.435 1.618 1.618 0 0 1-1.875-1.3h.902a.928.928 0 0 0 .995.57.809.809 0 0 0 .96-.616.665.665 0 0 0-.671-.559l-.797-.185a1.304 1.304 0 0 1-1.271-1.275 1.552 1.552 0 0 1 1.774-1.38ZM44.17 1.828v1.159h.99v.76h-.99v2.349a.576.576 0 0 0 .645.688 2.955 2.955 0 0 0 .345-.021v.751a2.903 2.903 0 0 1-.492.047c-1.002 0-1.4-.353-1.4-1.234v-2.58h-.727v-.76h.726V1.828h.902ZM50.16 6.301a1.856 1.856 0 0 1-1.98 1.322 2.076 2.076 0 0 1-2.112-2.358 2.108 2.108 0 0 1 2.106-2.388 2.012 2.012 0 0 1 2.04 2.304v.314h-3.227v.051a1.207 1.207 0 0 0 1.217 1.31A1.095 1.095 0 0 0 49.29 6.3h.869Zm-3.173-1.473h2.308a1.103 1.103 0 0 0-1.125-1.182 1.168 1.168 0 0 0-1.183 1.182ZM51.42 2.965h.869v.727h.067a1.367 1.367 0 0 1 1.363-.815 1.487 1.487 0 0 1 1.582 1.7v2.958H54.4V4.803a.92.92 0 0 0-.986-1.099 1.048 1.048 0 0 0-1.091 1.159v2.672h-.903v-4.57ZM58.94 5.248a2.165 2.165 0 1 1 4.31 0 2.165 2.165 0 1 1-4.31 0Zm3.384 0c0-.99-.446-1.569-1.226-1.569-.785 0-1.225.58-1.225 1.57 0 .998.44 1.573 1.225 1.573.78 0 1.226-.58 1.226-1.574ZM64.457 2.965h.869v.727h.067a1.367 1.367 0 0 1 1.363-.815 1.487 1.487 0 0 1 1.582 1.7v2.958h-.902V4.803a.92.92 0 0 0-.986-1.099 1.048 1.048 0 0 0-1.091 1.159v2.672h-.902v-4.57Z"></path>
	</g>
</svg>
