<svg focusable="false" aria-hidden="true" xmlns="http://www.w3.org/2000/svg" xml:space="preserve" viewBox="0 0 1974.5 310.1" height=".85em" style="margin-top: .1em">
  <g fill="currentColor">
    <path d="M499.8 93.6c-31.8 0-48 25-48 62.7 0 35.6 17.5 62.4 48 62.4 34.4 0 47.4-31.6 47.4-62.4 0-32.2-16.3-62.7-47.4-62.7M415.3 0h37.8v90.5h.6a61.8 61.8 0 0 1 51-27.8c54 0 80.2 42.5 80.2 94.3 0 47.6-23.2 92.5-73.9 92.5-23.2 0-48-5.8-59.3-29.1h-.6v24.3h-35.8V0M715.9 185c0 24.7-25.9 33.7-42.4 33.7-13.3 0-34.8-5.2-34.8-22.7 0-20.5 14.5-26.7 30.8-29.4 16.5-3.1 34.8-2.8 46.4-10.7zM877.5 62.8A61 61 0 0 0 824 94.2l-.6-.6v-26h-35.8v150.8l-25.2.3c-7 0-9-3.8-9-13.4V114c0-37.3-35-51.4-68.5-51.4-37.8 0-75.2 13.4-77.9 59H645c1.7-19.2 16.6-28.1 37.8-28.1 15.2 0 35.4 3.7 35.4 24 0 23-24.2 19.8-51.3 25-31.9 3.7-66 11-66 55.1 0 34.7 27.9 51.8 58.7 51.8 20.2 0 44.4-6.5 59.3-21.6 3 16.1 13.9 21.6 29.1 21.6 6.3 0 18.2-2.4 77.3-4.5v-.3h.3V140.2c0-26 16.2-46.6 41.4-46.6 22.2 0 32.8 12 33.4 39.7v111.4h37.8V123c0-39.7-23.4-60.3-60.6-60.3M1048.1 218.7c33.8 0 48-32 48-62.8 0-39-18.2-62.3-47.3-62.3-35.5 0-48 32.5-48 64.4 0 30.5 14.5 60.7 47.3 60.7m84.5 26h-35.8v-24h-.6c-10 20.2-31.5 28.8-53 28.8-54 0-80.2-41.5-80.2-94.6 0-64 36.7-92.2 74.2-92.2 21.5 0 45.4 8.2 57 27.8h.6V0h37.8v244.7M1282.7 126.8c-3-21.6-18.2-33.2-39.1-33.2-19.6 0-47 10.6-47 64.4 0 29.5 12.5 60.7 45.3 60.7 21.9 0 37.1-15.1 40.8-40.5h37.7c-7 46-34.4 71.3-78.5 71.3-53.6 0-83.1-39.4-83.1-91.5 0-53.5 28.1-95.3 84.5-95.3 39.7 0 73.5 20.6 77.1 64.1h-37.7M1450.3 185c0 24.7-25.8 33.7-42.4 33.7-13.2 0-34.7-5.2-34.7-22.7 0-20.5 14.5-26.7 30.8-29.4 16.5-3.1 34.8-2.8 46.3-10.7zm263.1-122.3c-24.8 0-41 11.3-53.7 29.5-7.6-20.2-27.1-29.5-48-29.5-27.2 0-41.4 12-52.7 29.5h-1V67.5h-35.8v151l-25.2.2c-7 0-9-3.8-9-13.4V114c0-37.3-35-51.4-68.5-51.4-37.8 0-75.2 13.4-77.8 59h37.7c1.7-19.2 16.6-28.1 37.8-28.1 15.2 0 35.4 3.7 35.4 24 0 23-24.1 19.8-51.3 25-31.8 3.7-66 11-66 55.1 0 34.7 27.9 51.8 58.7 51.8 20.2 0 44.4-6.5 59.3-21.6 3 16.1 14 21.6 29.2 21.6 6.2 0 18.2-2.4 76.7-4.5v-.3h.8V139.5c0-29.5 17.9-46 37.4-46 22.9 0 30.2 13 30.2 37.4v113.8h37.7V140.9c0-29.9 11-47.3 36.5-47.3 29.5 0 31.1 19.5 31.1 47.6v103.5h37.8V122.4c0-43.2-21.2-59.7-57.3-59.7M1889.3 93.6c-31.8 0-48 25-48 62.7 0 35.6 17.6 62.4 48 62.4 34.5 0 47.4-31.6 47.4-62.4 0-32.2-16.2-62.7-47.4-62.7m-84.4-26h35.7v23.9h.7c10.6-20.2 31.1-28.8 53-28.8 54 0 80.2 42.5 80.2 94.3 0 47.6-23.2 92.5-73.9 92.5-21.9 0-45.4-8.2-57.3-27.8h-.7v88.4H1805V67.5"/>
    <path d="M283.3 244.2H0L132.3 0h283.2L283.3 244.2"/>
  </g>
</svg>
