<svg focusable="false" aria-hidden="true" xmlns="http://www.w3.org/2000/svg" xml:space="preserve" viewBox="0 0 3417.32 474.92" style="height:1em" height="1em" fill="currentColor">
  <path d="M248.427 174.88c0-41.947-28.399-78.084-72.275-78.084H104.53v156.145h71.622c43.876 0 72.275-36.114 72.275-78.061zM0 11.625h189.05c100.022 0 164.557 75.504 164.557 163.255 0 87.75-64.535 163.23-164.556 163.23h-84.52v125.191H0V11.625"/>
  <path d="m656.227 140.672-55.495 185.843H710.42zm97.441 322.63-17.405-54.846H575.587l-17.43 54.845h-111.64L607.843 11.625h96.14l163.256 451.676H753.668m289.072-361.345H940.813v-90.33h309.058v90.33h-102.602v361.345H1042.74V101.956m618.167 72.924c0-41.947-28.4-78.084-72.28-78.084H1517v156.145h71.627c43.88 0 72.28-36.114 72.28-78.061zM1412.48 11.625h189.72c100 0 164.533 75.504 164.533 163.255 0 63.233-33.56 119.356-89.706 145.825l90.36 142.596H1646.08l-80.04-125.19H1517V463.3h-104.52V11.625m636.246 83.892v102.579h170.986v81.963h-170.986v99.347h170.986v83.895h-275.516V11.624h275.516v83.893h-170.986m712.363 141.946c0-74.202-50.35-143.245-132.277-143.245-82.613 0-132.293 69.043-132.293 143.245 0 74.203 49.68 143.247 132.293 143.247 81.928 0 132.277-69.044 132.277-143.247zm-371.69 0c0-123.888 89.052-237.457 239.413-237.457 149.675 0 238.727 113.569 238.727 237.457 0 123.888-89.052 237.457-238.727 237.457-150.36 0-239.413-113.569-239.413-237.457m924.046 68.393V11.625h103.883V463.3h-109.04L3145.66 172.927V463.3h-104.532V11.625h109.04l163.277 294.23"/>
</svg>
