<svg focusable="false" aria-hidden="true" xmlns="http://www.w3.org/2000/svg" viewBox="0 0 53 43" style="height: 1em;">
  <path fill="currentColor" fill-rule="evenodd" d="M51.735 18.953a1.403 1.403 0 0 0-.146-.008h-4.441c-.223.001-.44.021-.653.056l-.016.003c-.677.115-1.3.39-1.854.754-.727.49-1.354 1.152-1.72 2.016l-.292.698-1.024 2.457-.045.107-.725-5.32-1.4-10.233a6.013 6.013 0 0 0-.117-.635 1.9 1.9 0 0 0-.269-.512 1.538 1.538 0 0 0-.386-.367 1.456 1.456 0 0 0-.895-.236 1.471 1.471 0 0 0-.692.23c-.328.225-.437.427-.529.579-.23.45-.274.762-.357 1.227L32.94 30.691l-1.246-17.207a5.59 5.59 0 0 0-.122-.892c-.038-.144-.072-.287-.191-.51a1.504 1.504 0 0 0-.339-.418 1.43 1.43 0 0 0-.928-.345 1.43 1.43 0 0 0-.886.308c-.307.259-.374.438-.45.578-.18.403-.224.694-.303 1.142l-1.333 8.408-2.066-19.642a5.684 5.684 0 0 0-.148-.878c-.04-.14-.078-.277-.198-.491a1.508 1.508 0 0 0-.33-.402A1.43 1.43 0 0 0 23.475 0a1.438 1.438 0 0 0-.916.334c-.31.279-.366.461-.438.605-.162.41-.195.7-.257 1.152L18.32 31.706l-1.952-15.234a4.462 4.462 0 0 0-.217-.968 1.913 1.913 0 0 0-.31-.557 1.498 1.498 0 0 0-1.158-.56c-.584.007-.95.32-1.116.507-.262.305-.333.52-.42.744a5.357 5.357 0 0 0-.19.712l-1.688 8.327-1.21-2.904c-.367-.863-.994-1.525-1.72-2.015-.734-.483-1.585-.807-2.524-.814h-4.44a1.374 1.374 0 1 0 0 2.749h4.44c.244-.006.653.116.998.352.351.229.622.558.71.785l2.934 7.04c.231.556.803.898 1.402.84a1.377 1.377 0 0 0 1.212-1.095l1.355-6.68 2.305 17.988c.045.34.091.611.177.891.047.144.094.29.228.504.072.107.167.24.355.386.18.141.499.298.87.296.372.002.694-.155.875-.3.32-.263.395-.458.472-.606.183-.43.215-.727.278-1.185l3.41-28.492 1.878 17.855c.038.345.08.623.165.914.047.149.094.302.236.525.074.112.176.25.37.394.185.142.502.286.854.283.347.002.649-.133.83-.264.32-.24.41-.432.495-.578.208-.429.252-.731.335-1.187l1.1-6.933 1.26 17.41c.026.34.056.61.12.888.037.142.071.283.188.505.063.111.146.251.334.419.175.16.52.352.924.352h.012c.404 0 .723-.175.895-.318.216-.185.31-.328.374-.445l.07-.134c.174-.4.217-.689.294-1.137l1.519-9.819 2.101-13.589.63 4.6.91 6.649c.052.368.113.678.252 1.017.075.17.165.358.37.578.19.211.596.486 1.106.483.49-.001.85-.234 1.041-.413.065-.062.12-.121.17-.179a1.375 1.375 0 0 0 .277-.422l.05-.119.009-.02c.02-.046.04-.093.058-.14l.54-1.295 1.74-4.176.01-.026.528-1.264c.087-.228.358-.557.709-.786.34-.232.742-.354.987-.352h4.451a1.37 1.37 0 0 0 1.374-1.373c.001-.71-.537-1.295-1.227-1.367"/>
</svg>
