<svg focusable="false" aria-hidden="true" xmlns="http://www.w3.org/2000/svg" viewBox="0 0 774.8 198.9" style="width: 4rem;" fill="currentColor">
  <path d="M254 174.1V71h34.8V174h-34.9zm17.6-111.5q-8.8 0-13.7-4.4-4.6-4.4-4.6-11.8 0-7 4.6-11.7 4.9-4.9 13.7-4.9 8.8 0 13.4 4.9 4.8 4.8 4.8 11.7 0 7.4-4.8 11.8-4.6 4.4-13.4 4.4zm69.1 113.6q-15.1 0-22.9-8-7.5-8.1-7.5-22.6V96.7h-13.8V71h13.8V45.8H345V71h22.7v25.7H345v43.9q0 4.8 1.9 6.9 2 1.9 6.3 1.9 5.6 0 12.4-5l8 22.8q-6.2 4.2-14 6.7-7.7 2.3-19 2.3zm85.6 0q-23.9 0-37.7-13.6-13.7-13.6-13.7-39.6 0-19 7.8-31.7 8-13.2 20-17.8 12.5-4.9 23.2-4.9 13.4 0 22.5 5.5 9 5.2 13.2 11.5 4.4 6.3 6.3 9.9L443.7 111q-3.3-7-7.3-10.9-4-4-9.6-4-8 0-12.6 6.3t-4.6 19q0 14 5.4 20.4 5.5 6.5 15.5 6.5 8 0 13.3-3 5.4-2.9 10.2-7.5l11.1 26q-5 4.2-14.8 8.4-9.9 4-24 4zm50.7-2V34h35v42.6q4.4-3.1 10.7-5.4 6.3-2.6 15-2.6 18.5 0 27.6 10.5 9.2 10.5 9.2 29.6v65.4h-35V113q0-8.8-3.4-12.8-3.3-4.2-8.8-4.2-4.6 0-8.6 2.1t-6.7 4.4v71.7h-35zm124.4 2q-8.4 0-13.2-4.8-4.9-4.8-4.9-12.4 0-7.5 4.9-12.6 4.8-5 13.2-5 8 0 12.8 5 4.8 5 4.8 12.6t-4.8 12.4q-4.6 4.8-12.8 4.8zm25.7-2V71H662V174h-34.8zm17.6-111.6q-8.8 0-13.6-4.4-4.6-4.4-4.6-11.8 0-6.9 4.6-11.7 4.8-4.8 13.6-4.8t13.5 4.8q4.8 4.8 4.8 11.7 0 7.4-4.8 11.8-4.7 4.4-13.5 4.4zm78.7 113.6q-12.2 0-21.6-4-9.4-4.2-16.1-11.3-6.5-7.3-10.1-17.2-3.4-10-3.4-21.8 0-17.4 7.6-30.4 7.7-12.8 19.3-17.8 11.7-5 24.3-5 18 0 29.8 8.3 12 8.4 16.7 21 4.9 12.6 4.9 24 0 11.6-3.6 21.7-3.4 9.9-10 17.2-6.6 7.1-16.2 11.3-9.5 4-21.6 4zm0-26.8q8.8 0 12.8-7.4 4-7.5 4-20 0-12-4.2-19.2-4.2-7.1-12.6-7.1-8.2 0-12.4 7.1-4.2 7.2-4.2 19.1 0 12.6 4 20.1 4.2 7.4 12.6 7.4z"/>
  <path d="M28.8 1.2C19.2 7 .2 28.8 0 34.5V44c0 12 11.2 22.6 21.4 22.6A22.6 22.6 0 0 0 44 44.4c0 12 9.8 22.2 22 22.2a22 22 0 0 0 21.8-22.2c0 12 10.5 22.2 22.7 22.2h.3a22.8 22.8 0 0 0 22.7-22.2c0 12 9.5 22.2 21.8 22.2s22-10.2 22-22.2c0 12 10.2 22.2 22.5 22.2C209.9 66.6 221 56 221 44v-9.5C221 28.8 202 7 192.3 1.2c-30-1-50.8-1.2-81.8-1.2S37.4.5 28.8 1.2zM87.6 61a25.3 25.3 0 0 1-4.3 5.5 25.6 25.6 0 0 1-18 7.4 25.7 25.7 0 0 1-22-12.8c-1.2 2-2.8 3.8-4.5 5.5a25.7 25.7 0 0 1-18 7.3c-.8 0-1.7-.3-2.4-.5-1 10.3-1.4 20-1.5 27.2l-.1 10.8c.2 21.5-2.1 69.7 9.5 81.5 18 4.2 51 6.1 84.3 6.1 33.2 0 66.3-1.9 84.3-6 11.6-12 9.3-60.1 9.5-81.6v-10.8c-.2-7.1-.6-17-1.6-27.2-.7.3-1.6.5-2.4.5a25.7 25.7 0 0 1-18-7.3 25.6 25.6 0 0 1-4.5-5.5 25.7 25.7 0 0 1-40 5.4 25.4 25.4 0 0 1-4.3-5.5 25.2 25.2 0 0 1-4.3 5.6 25.7 25.7 0 0 1-18 7.3H110c-7 0-13.4-2.8-18-7.3a25.2 25.2 0 0 1-4.3-5.6zM69 84.8c7.4 0 13.9 0 21.9 8.8a187.5 187.5 0 0 1 39.2 0c8-8.8 14.5-8.8 21.8-8.8 3.5 0 17.3 0 27 27l10.3 37.1c7.6 27.6-2.5 28.3-15 28.3-18.8-.7-29.2-14.3-29.2-27.9a219.4 219.4 0 0 1-34.5 2.6c-12.1 0-24.2-.9-34.5-2.6 0 13.6-10.4 27.2-29.1 28-12.6-.1-22.8-.8-15-28.4l10.2-37c9.7-27.1 23.5-27.1 27-27.1zm41.5 21.2s-19.7 18.1-23.3 24.6l13-.6v11.3c0 .5 5 .3 10.3 0 5.1.3 10.3.5 10.3 0V130l13 .6c-3.6-6.5-23.3-24.6-23.3-24.6z"/>
</svg>
