<svg focusable="false" xmlns="http://www.w3.org/2000/svg" xmlns:xlink="http://www.w3.org/1999/xlink" viewBox="0 0 835 177" height="1em">
  <defs>
    <path id="path-1" d="M0 .136h92.919v175.707H0z"/>
    <path id="path-3" d="M0 .383h82.728V137.28H0z"/>
  </defs>
	<title>{{- i18n "tenor_wordmark_alt" | htmlUnescape | safeHTML -}}</title>
  <g id="Page-1" fill="none" fill-rule="evenodd" stroke="none" stroke-width="1">
    <g id="via_tenor_logo_blue">
      <g id="Group-13-Copy-14" transform="translate(209)">
        <path id="Fill-1" fill="#007ADD" d="M201.4 97.28c-.594-5.14-2.057-9.885-3.995-14.512-11.547-27.168-41.562-27.88-56.984-14.632-8.107 6.96-12.892 15.858-15.265 26.14-.237.949-.316 1.898-.514 3.005H201.4Zm-77.193 20.13c.95 7.118 3.005 13.484 6.644 19.218 8.541 13.485 20.959 19.892 36.856 19.773 13.05-.08 24.24-4.825 33.89-13.525 5.062-4.587 12.18-3.717 15.739 1.78 2.57 3.955 2.056 8.74-1.503 12.299-10.796 10.795-23.648 17.518-38.873 19.377-9.965 1.226-19.89.988-29.58-2.017-22.066-6.841-36.737-21.473-43.262-43.46-7.632-25.823-3.559-49.827 14.434-70.47 12.22-13.96 28.038-20.603 46.663-20.286 16.056.276 30.055 5.734 41.325 17.4 9.372 9.688 14.553 21.512 16.925 34.641.91 4.983 1.305 10.045 1.543 15.106.277 5.576-4.073 9.926-9.65 10.203-.79.04-1.581 0-2.372 0h-85.971c-.791-.04-1.622-.04-2.808-.04Z"/>
        <path id="Fill-3" fill="#007ADD" d="M496.802 109.383c-.198-13.564-4.113-24.874-12.694-34.444-17.518-19.575-49.51-18.824-66.318 1.344-13.999 16.807-14.987 46.466 1.266 64.736 14.473 16.293 40.494 19.654 58.21 7 13.485-9.65 19.14-23.293 19.536-38.636m-113.337-1.82c.04-34.957 27.128-67.82 68.571-67.74 38.636.04 68.255 29.975 68.177 68.887-.08 38.24-30.292 68.057-69.007 68.097-37.291 0-67.82-31.161-67.741-69.244"/>
        <path id="Fill-5" fill="#007ADD" d="M270.173 59.042c2.491-2.373 4.508-4.39 6.604-6.288C286.9 43.5 299 39.704 312.486 39.823c10.637.118 20.643 2.491 29.5 8.66 10.994 7.672 16.966 18.547 19.298 31.478a76.652 76.652 0 0 1 1.187 12.773c.119 24.202.04 48.364.04 72.566 0 4.626-2.927 9.016-7.237 10.598-4.508 1.66-8.74.988-12.22-2.492-2.451-2.412-3.52-5.457-3.52-8.937.04-22.422.12-44.805-.078-67.227-.04-4.429-.672-8.976-1.74-13.247-3.362-13.09-12.734-21.038-26.14-22.58-9.53-1.108-18.586.395-26.534 6.168-10.559 7.672-14.79 18.587-14.83 31.241-.079 22.066 0 44.172-.04 66.238 0 8.463-8.225 13.96-16.055 10.757-4.152-1.7-6.96-6.21-6.96-11.27v-113.1c0-4.469 2.057-7.87 5.853-10.084 3.915-2.294 7.988-2.175 11.824.237 3.282 2.096 5.26 5.141 5.339 9.175.04 2.61 0 5.14 0 8.265"/>
        <g id="Group-9" transform="translate(0 .259)">
          <mask id="mask-2" fill="#fff">
            <use xlink:href="#path-1"/>
          </mask>
          <path id="Fill-7" fill="#007ADD" d="M49.11 42.054h31.044c4.27.199 7.75 1.583 9.965 5.419 3.678 6.445-.079 14.236-7.434 15.343-1.147.158-2.373.198-3.56.197H49.037v72.804c.075 4.745.826 9.293 4.03 13.168 2.61 3.164 6.129 4.509 9.965 5.102 5.734.91 11.428.434 17.004-1.306 5.3-1.7 10.52.673 12.299 5.616 1.819 5.022-.752 9.965-5.655 12.338-6.644 3.243-13.604 4.666-20.96 5.062-19.06.95-36.183-12.892-39.07-31.794-.395-2.452-.514-4.983-.514-7.475-.04-23.53-.04-47.058-.035-70.588v-2.728c-.874-.04-1.586-.12-2.258-.12-4.35 0-8.7.08-13.05-.039C3.674 62.856-.914 57.517.154 50.794c.751-4.745 5.062-8.304 10.48-8.462 4.27-.119 8.58-.04 12.852-.04 2.61 0 2.61 0 2.614-2.728V12.08C26.096 5.357 30.96.216 37.445.136c6.486-.078 11.587 5.102 11.626 11.905.04 9.213 0 18.467 0 27.681.04.751.04 1.542.04 2.53v-.198Z" mask="url(#mask-2)"/>
        </g>
        <g id="Group-12" transform="translate(542.955 39.409)">
          <mask id="mask-4" fill="#fff">
            <use xlink:href="#path-3"/>
          </mask>
          <path id="Fill-10" fill="#007ADD" d="M23.095 28.135c3.4-3.875 6.405-7.711 9.886-11.112 7.948-7.75 17.28-13.169 28.275-15.344 3.321-.672 6.801-.83 10.202-.672 6.446.356 11.27 5.734 11.27 12.061 0 6.249-4.903 11.548-11.27 12.14-4.706.436-9.49.515-14.117 1.503-12.694 2.73-21.671 10.4-27.445 21.909-5.062 10.044-6.762 20.88-6.801 31.992-.08 14.829 0 29.658 0 44.488 0 6.88-5.063 12.22-11.588 12.18C4.943 137.24 0 132.139 0 125.258V11.803C0 6.663 3.638 1.996 8.542.77c5.378-1.345 10.598.87 12.93 5.813.91 1.898 1.425 4.113 1.504 6.248.237 4.39.079 8.819.079 13.248.04.672.04 1.305.04 2.056" mask="url(#mask-4)"/>
        </g>
      </g>
      <path id="via" fill="#007ADD" fill-rule="nonzero" d="m70.25 73.75-29 66.25H29L0 73.75h12.5l22.75 53.125L58.5 73.75h11.75Zm10.25 0h12V140h-12V73.75Zm58-.625c9.167 0 16.187 2.25 21.063 6.75 4.875 4.5 7.312 11.208 7.312 20.125v40H155.5v-8.75c-2 3.083-4.854 5.437-8.563 7.063-3.708 1.625-8.104 2.437-13.187 2.437-7.417 0-13.354-1.792-17.813-5.375-4.458-3.583-6.687-8.292-6.687-14.125s2.125-10.52 6.375-14.063c4.25-3.541 11-5.312 20.25-5.312h19V99.5c0-5.167-1.5-9.125-4.5-11.875s-7.417-4.125-13.25-4.125c-3.917 0-7.75.646-11.5 1.938-3.75 1.291-6.917 3.02-9.5 5.187l-5-9c3.417-2.75 7.5-4.854 12.25-6.313 4.75-1.458 9.792-2.187 15.125-2.187Zm16.375 37.375h-18.5c-10.167 0-15.25 3.417-15.25 10.25 0 3.333 1.292 5.958 3.875 7.875 2.583 1.917 6.167 2.875 10.75 2.875s8.542-1.02 11.875-3.063c3.333-2.041 5.75-4.937 7.25-8.687v-9.25ZM86.5 45.375c2.333 0 4.27.73 5.813 2.188 1.541 1.458 2.312 3.27 2.312 5.437 0 2.25-.77 4.146-2.313 5.688C90.772 60.228 88.834 61 86.5 61s-4.27-.75-5.813-2.25c-1.541-1.5-2.312-3.333-2.312-5.5s.77-4.02 2.313-5.563c1.541-1.541 3.479-2.312 5.812-2.312Z"/>
    </g>
  </g>
</svg>
