<svg focusable="false" aria-hidden="true" xmlns="http://www.w3.org/2000/svg" fill="none" viewBox="0 -11 70 70">
  <rect width="69" height="47" x=".5" y=".5" fill="#fff" stroke="#D9D9D9" rx="5.5"/>
  <path fill="#000" fill-rule="evenodd" d="M19.16 16.686c-.587.704-1.527 1.26-2.468 1.18-.117-.952.343-1.963.882-2.587.587-.724 1.615-1.24 2.448-1.279.098.991-.284 1.963-.862 2.686Zm.852 1.368c-.828-.048-1.584.252-2.194.495-.393.156-.726.288-.979.288-.284 0-.63-.139-1.019-.295-.51-.205-1.092-.44-1.703-.428-1.4.02-2.703.822-3.418 2.101-1.469 2.558-.382 6.344 1.038 8.426.696 1.03 1.528 2.16 2.625 2.121.482-.018.83-.167 1.188-.322.414-.177.844-.362 1.514-.362.648 0 1.059.18 1.453.352.375.165.735.322 1.27.312 1.136-.02 1.85-1.03 2.546-2.061a9.114 9.114 0 0 0 1.13-2.35l.006-.02a.263.263 0 0 0-.027-.013c-.25-.116-2.168-1.004-2.186-3.387-.019-2 1.52-3.012 1.762-3.172l.03-.02c-.98-1.466-2.507-1.625-3.036-1.665Zm7.863 12.58V15.18h5.73c2.957 0 5.023 2.061 5.023 5.075 0 3.013-2.106 5.095-5.102 5.095h-3.28v5.283h-2.37Zm2.37-13.432h2.732c2.057 0 3.232 1.11 3.232 3.063s-1.175 3.073-3.242 3.073h-2.722v-6.136ZM46.452 28.78c-.627 1.209-2.008 1.972-3.496 1.972-2.203 0-3.74-1.328-3.74-3.33 0-1.983 1.488-3.123 4.24-3.291l2.957-.179V23.1c0-1.26-.813-1.943-2.262-1.943-1.195 0-2.067.624-2.243 1.576h-2.135c.069-2.002 1.93-3.46 4.446-3.46 2.713 0 4.475 1.438 4.475 3.668v7.692h-2.193V28.78h-.049Zm-2.86.139c-1.263 0-2.066-.615-2.066-1.557 0-.971.774-1.536 2.252-1.625l2.635-.169v.872c0 1.448-1.215 2.479-2.82 2.479Zm12.378 2.319c-.95 2.706-2.037 3.598-4.348 3.598-.176 0-.764-.02-.9-.06v-1.853c.146.02.509.04.695.04 1.047 0 1.635-.446 1.997-1.606l.216-.684-4.015-11.25h2.477l2.791 9.129h.05l2.79-9.13h2.41L55.97 31.238Z" clip-rule="evenodd"/>
</svg>